
<svg xmlns="http://www.w3.org/2000/svg" width="247.89999" height="212.3" version="1.1" viewBox="0 0 65.591173 56.171071" id="svg54">
  
  <defs id="defs58"></defs>
  
  <g transform="matrix(0.9999987,0,0,1,195.55561,-41.018185)" id="g52">
    <g fill="#020202" shape-rendering="auto" id="g46"></g>
    <path d="m -130.54,41.061 h -28.666 c -0.27527,0 -0.51385,0.22022 -0.51385,0.51386 v 8.9374 c 0,0.27528 0.22023,0.51386 0.51385,0.51386 h 18.737 c 0.27528,0 0.51386,0.22022 0.51386,0.51386 v 12.424 c 0,0.12846 -0.0551,0.25693 -0.14682,0.36704 l -8.7906,8.8273 c -0.33033,0.33034 -0.8809,0.09176 -0.8809,-0.36704 v -8.4052 c 0,-0.12846 0.0551,-0.25693 0.14681,-0.36704 l 5.1753,-5.2303 c 0.31199,-0.33034 0.0918,-0.86254 -0.36703,-0.86254 h -14.388 c -0.27527,0 -0.51385,0.23857 -0.51385,0.51386 v 38.227 c 0,0.4588 0.55056,0.67902 0.88089,0.36704 l 28.684,-28.537 c 0.0918,-0.09176 0.14681,-0.22022 0.14681,-0.36704 v -26.555 c -0.0183,-0.27528 -0.23857,-0.51386 -0.5322,-0.51386" stroke-width="0.18352" id="path48"></path>
    <path class="st1" d="m -195.01,41.061 h 28.684 c 0.27528,0 0.51385,0.22022 0.51385,0.51386 v 8.9374 c 0,0.27528 -0.22022,0.51386 -0.51385,0.51386 h -18.737 c -0.27528,0 -0.51386,0.22022 -0.51386,0.51386 v 12.424 c 0,0.12846 0.0551,0.25693 0.14682,0.36704 l 8.7906,8.8273 c 0.33033,0.33034 0.88089,0.09176 0.88089,-0.36704 v -8.4052 c 0,-0.12846 -0.0551,-0.25693 -0.14682,-0.36704 l -5.1752,-5.2303 c -0.31199,-0.33034 -0.0918,-0.86254 0.36704,-0.86254 h 14.388 c 0.27528,0 0.51385,0.23857 0.51385,0.51386 v 38.227 c 0,0.4588 -0.55055,0.67902 -0.88089,0.36704 l -28.666,-28.556 c -0.0918,-0.09176 -0.14682,-0.22022 -0.14682,-0.36704 v -26.537 c -0.0184,-0.27528 0.22023,-0.51386 0.49551,-0.51386" fill="#aa8b30" stroke-width="0.18352" id="path50"></path>
  </g>
</svg>
