<svg xmlns="http://www.w3.org/2000/svg" version="1.0" width="436" height="172" viewBox="0 0 4360 1720"><path fill="#6460f0" d="M441.266 1659.84c-18.846-33.341-38.053-66.32-42.04-73.569-4.349-7.248-25.73-43.851-47.475-81.904-46.388-80.092-97.488-168.882-143.514-248.25-17.758-30.804-47.475-82.266-65.958-114.158-18.483-31.892-52.55-91.327-76.106-132.279C18.698 927.776 10 904.582 10 861.817c0-35.878 7.61-62.696 27.543-98.212 9.06-16.308 17.033-29.355 17.758-29.355 1.087 0 19.57 31.53 72.482 123.219 14.134 25.006 47.838 82.991 74.293 128.654 26.456 46.026 59.798 103.65 74.294 128.655 14.496 25.007 44.576 77.193 67.045 115.971 22.47 38.778 43.49 75.743 47.114 81.542 35.153 61.247 76.468 133.004 82.266 142.426l7.61 12.322 10.148-17.758c9.423-16.67 28.268-49.287 41.315-71.757 33.704-57.985 76.468-131.916 89.515-154.748 8.697-15.584 16.67-28.268 17.395-28.268.725 0 8.336 11.96 16.67 26.094 21.383 36.24 29.356 63.783 29.356 98.937 0 49.287.362 48.925-113.071 244.625-22.47 38.778-51.462 89.878-64.871 113.072-13.047 23.556-25.369 42.764-27.543 42.764-1.812 0-19.208-27.18-38.053-60.16zm985.75 32.617c-32.617-15.221-32.617-14.859-32.617-60.885v-40.59l20.295 19.208c21.744 20.658 35.878 26.456 64.871 26.456 38.778 0 61.972-26.093 58.71-67.045-2.174-31.892-14.496-51.825-63.784-104.374-67.045-71.757-81.18-98.937-81.18-156.56 0-54 17.034-89.515 53.275-111.984 14.859-9.423 21.744-10.873 49.65-12.322 37.328-1.812 61.61 3.261 78.642 15.946l11.597 9.06v76.468l-14.858-13.41c-8.336-7.247-20.295-15.583-27.18-18.482-26.457-11.235-61.973-2.9-72.12 17.033-8.698 16.671-6.886 54.724 3.262 75.019 9.06 17.033 12.321 21.02 64.87 76.83 55.811 58.71 73.932 98.938 70.308 155.473-3.262 56.536-27.543 96.039-69.945 114.884-16.67 7.248-25.369 8.698-56.898 8.698-31.892 0-39.503-1.45-56.898-9.423zm280.866.725c-30.08-13.772-48.925-39.503-55.81-76.468-5.074-27.181-5.074-206.21 0-237.378 9.422-58.71 44.213-86.978 106.547-86.978 47.113 0 73.932 14.497 92.777 50.737 8.335 15.222 8.698 20.658 9.785 89.878l1.087 73.206h-146.05l1.45 48.2c1.086 54.362 6.16 68.496 28.267 79.368 25.731 13.047 72.844 5.074 92.414-15.221 5.799-6.161 11.597-10.873 13.41-10.873 1.449 0 2.898 14.134 2.898 31.892-.362 36.966-3.261 42.04-31.53 54.362-27.18 11.597-88.79 11.234-115.245-.725zm88.79-275.43c0-18.483-1.812-38.778-3.986-45.301-10.148-28.63-58.71-30.08-70.308-2.175-5.436 12.684-7.61 74.294-2.899 79.005 1.087 1.45 19.208 2.537 39.865 2.537h37.328zm484.178 276.879c-23.195-9.06-40.59-26.093-52.55-50.737l-9.422-19.932v-253.686l11.96-24.644c13.77-27.543 26.455-38.777 54.36-47.838 28.268-9.06 72.844-6.523 96.4 5.437 39.866 19.932 49.288 46.388 49.288 140.614v62.334h-145.688l1.45 48.2c1.45 54.724 6.523 68.496 28.268 79.368 25.73 13.047 72.844 5.074 92.414-15.221 5.798-6.161 11.597-10.873 13.409-10.873 3.624 0 3.986 58.348.362 67.046-1.087 3.624-11.96 10.872-24.281 16.67-19.932 9.423-25.369 10.51-60.16 10.51-28.63-.362-42.401-2.174-55.81-7.248zm84.803-279.054c0-19.932-1.812-40.227-4.349-45.3-8.335-18.484-40.59-26.094-59.073-14.135-11.597 7.61-16.308 25.369-16.308 64.146v31.53h79.73zm136.99 281.229c-31.167-11.235-31.892-12.684-31.892-53.637v-36.603l11.96 9.785c18.483 15.221 39.14 23.92 57.985 23.92 31.892 0 46.026-13.772 46.026-45.664 0-22.47-10.51-41.315-34.791-61.972-48.2-40.952-59.798-53.274-71.395-76.83-28.268-57.623-10.872-127.206 38.778-153.662 12.322-6.523 20.657-7.973 51.1-7.973 30.804 0 38.777 1.45 53.636 8.336l17.033 8.698v34.066c0 18.845-.725 34.066-1.45 34.066-.724 0-7.248-4.711-14.496-10.51-25.368-20.294-63.784-22.469-79.005-4.71-7.973 9.06-10.872 28.63-6.16 45.663 3.986 14.858 11.959 23.919 73.568 81.904 11.96 11.597 25.731 29.355 32.254 41.677 10.51 19.932 11.235 24.644 11.235 57.985 0 32.617-1.087 38.415-10.147 56.173-11.96 23.194-22.47 33.342-47.476 45.301-15.221 7.61-23.556 9.06-50.737 8.698-17.758 0-38.778-2.174-46.026-4.711zm-593.624-197.875v-199.324h12.322c6.523 0 22.106-1.088 34.428-2.175l22.107-2.537.363 37.69.362 37.691 5.074-22.832c8.698-40.59 20.295-55.086 43.489-55.086 22.831 0 26.818 7.61 26.818 50.013v33.704l-10.51-7.249c-15.946-11.597-37.328-10.147-51.824 2.9l-11.96 10.51-1.812 157.285-1.812 156.922-33.341 1.088-33.704 1.087zm192.076 0v-199.324h12.322c6.523 0 22.107-1.088 34.429-2.175l22.107-2.537v403.36h-68.858zM472.433 1345.995c-2.537-4.712-24.282-41.677-47.476-82.63-23.556-40.951-53.636-93.138-67.045-115.97-13.41-22.832-50.013-86.615-81.542-141.34-31.53-54.723-61.61-106.91-67.046-115.97-55.448-89.152-75.38-179.392-59.797-274.343 10.872-67.408 5.436-56.173 216.358-421.48 40.952-70.67 82.266-142.427 92.051-159.097 9.785-16.671 19.57-31.168 21.745-31.892 5.436-1.812 27.543 38.052 37.328 66.683 9.423 27.905 10.51 77.917 2.174 104.736-7.248 22.469-26.093 57.623-83.353 154.386-1.812 3.261-14.86 25.368-28.268 48.925-13.41 23.556-28.268 49.287-32.98 57.26-4.71 7.973-20.294 34.791-34.79 59.797-59.436 103.287-63.422 114.884-63.06 183.017.363 72.844-5.073 61.247 144.601 320.006 46.388 80.817 57.986 98.213 61.61 94.226 2.536-2.537 20.657-32.254 39.865-66.32 19.57-33.705 53.998-93.502 76.105-132.28 22.47-38.777 51.462-89.514 64.871-112.346 13.047-22.832 25.731-41.677 28.268-41.677 5.799 0 27.906 38.778 38.053 67.045 11.597 32.98 11.235 71.395-.725 107.273-7.973 23.92-12.322 32.98-29.717 61.247-2.537 3.987-14.859 26.094-28.268 48.925-13.047 22.832-27.543 48.2-32.254 56.174-4.712 7.973-21.02 35.878-35.879 61.971-15.221 26.094-30.442 52.55-34.066 58.71-3.624 6.161-19.57 33.704-35.154 61.247-33.704 58.71-53.636 91.69-55.086 91.69-.725 0-3.624-3.624-6.523-7.973zM739.528 1255.393c-10.51-13.772-26.819-47.838-33.704-71.395-6.886-21.744-7.973-31.892-6.161-56.173 2.537-36.24 10.51-59.435 35.153-101.837 44.214-75.38 55.449-107.997 55.811-161.271.363-40.952-7.973-78.28-25.368-112.347-10.51-21.02-61.247-109.447-70.308-123.219-3.986-6.16-3.986-5.798-22.107 25.369-5.436 9.06-24.643 42.402-43.126 74.294-18.483 31.892-36.966 64.146-41.315 71.394-34.066 59.435-58.347 101.837-67.408 117.058-6.16 10.147-17.033 28.993-24.28 42.402-7.611 13.771-15.222 24.643-17.396 24.643-1.812 0-17.396-23.919-34.067-53.636-17.033-29.355-44.576-76.83-61.247-105.823-52.549-89.877-53.274-91.69-53.274-146.775 0-54.724-.362-53.637 47.838-137.716 151.124-264.195 203.673-353.347 207.66-353.347 6.886 0 33.341 51.824 39.865 78.642 9.06 34.429 9.06 50.737.362 84.804-5.798 22.106-42.764 96.763-58.347 117.42-1.45 2.174-6.886 10.872-11.598 19.932-5.073 9.06-24.28 42.402-42.764 74.294-18.483 31.892-40.952 70.67-49.65 85.89l-16.308 28.269 9.785 17.033c5.436 9.785 12.322 22.107 15.584 27.543 2.899 5.798 6.523 9.06 8.335 7.248 1.45-1.45 11.597-18.483 22.47-37.328 10.872-18.845 36.965-64.509 58.347-101.474 21.382-36.966 58.71-101.837 82.991-143.876 24.282-42.402 45.664-76.469 47.476-76.106 3.262 1.087 27.18 41.677 105.46 178.305 18.121 31.892 45.302 79.367 60.523 105.098 30.442 52.55 42.402 80.455 52.911 123.219 18.483 74.656 11.598 155.835-19.932 228.317-9.423 22.107-35.878 69.22-106.186 190.264-14.496 25.006-28.63 49.65-31.53 55.449-5.798 10.872-9.422 11.96-14.495 5.436zm1361.567-37.691v-29.355l22.107-2.537c12.322-1.087 27.905-2.174 34.429-2.174h12.322v56.898l-34.43 3.262-34.428 3.261zm485.627-252.961V716.854l28.268-2.174c15.22-1.45 30.804-3.624 34.428-4.35 5.437-1.811 6.161 1.45 6.161 31.168 0 32.98 4.35 40.59 8.698 16.308 2.9-14.496 19.933-35.878 35.154-43.851 5.798-2.9 20.295-5.074 34.791-5.074 37.69 0 61.247 17.396 72.12 53.274 7.247 24.282 7.247 275.068 0 299.712-10.873 35.878-37.329 56.173-73.57 56.535-37.328 0-59.435-17.033-70.67-54.36-4.348-14.86-4.71-9.061-5.798 66.32l-.725 82.267h-68.858zm135.54 91.69c19.208-8.698 20.295-17.758 20.295-144.601 0-111.26-.362-117.42-7.248-129.017-14.134-22.832-47.838-25.37-67.408-4.712l-10.51 10.872v118.508c0 128.655 1.088 137.353 19.57 147.5 11.598 6.161 32.98 6.886 45.302 1.45zm1408.318-91.69V716.854l26.456-2.537c14.134-1.087 28.993-3.261 32.617-3.986 5.436-1.812 6.161 1.45 6.161 31.167 0 31.53 3.987 40.59 8.335 19.208 2.9-14.497 17.034-34.067 31.168-43.49 17.395-11.596 57.622-11.596 78.28 0 15.946 9.06 28.992 26.094 34.428 45.664 2.175 7.61 3.625 69.22 3.625 149.675 0 115.608-.725 139.527-5.799 154.023-7.61 22.832-26.818 42.764-47.113 48.2-21.382 6.161-53.636 2.9-65.958-6.16-12.685-9.06-26.094-28.993-28.63-42.04-5.437-27.543-7.974-6.16-7.249 65.234l.725 79.005-33.341 1.087-33.704 1.087zm131.917 92.052c19.208-7.248 20.295-14.496 20.295-143.151 0-98.575-1.087-119.957-5.436-128.655-12.684-24.644-48.925-28.63-67.77-7.248l-10.148 10.872v247.162l12.322 12.322c9.785 9.785 15.221 12.322 26.818 12.322 8.336 0 18.845-1.45 23.92-3.624zm-2790.905 54.724c-34.066-11.597-53.274-31.167-67.408-68.133-7.248-19.932-7.61-27.543-9.06-169.607-.725-97.488.362-156.56 2.9-172.144 11.596-68.133 55.085-103.649 126.842-102.924 30.805.363 50.012 5.436 69.945 18.483l13.409 9.423v79.367l-17.758-16.308c-38.778-34.43-94.226-31.892-115.246 5.798-5.798 10.51-6.523 25.369-7.61 149.312-1.088 94.589 0 143.514 2.899 156.56 7.61 34.067 26.818 49.288 63.421 49.288 25.006 0 40.59-6.523 60.885-25.73l13.409-13.048v77.193l-12.322 9.423c-25.731 19.57-86.978 26.093-124.306 13.047zm479.104 1.812c-16.309-7.248-29.718-25.006-34.067-45.664-6.16-28.268-5.073-147.137 1.45-168.882 11.96-40.227 51.1-58.348 93.501-43.489 18.845 6.886 27.543 15.221 37.328 36.603l8.698 18.12v-41.676c0-46.026-3.986-66.32-15.584-79.368-21.744-23.918-68.495-25.006-101.836-2.174l-13.41 9.06 1.088-33.704 1.087-33.341 19.57-9.785c17.758-9.06 23.557-10.148 56.173-10.148 43.49 0 64.871 6.524 87.34 26.094 8.699 7.61 19.208 22.107 23.92 32.616l8.697 19.208v326.167l-33.341 1.088-33.342 1.087-1.087-26.456-1.087-26.456-7.61 16.309c-9.06 19.207-20.295 30.08-37.329 35.878-16.308 5.436-46.75 4.711-60.16-1.087zm90.602-51.462c5.073-3.262 10.51-11.597 12.684-19.208 4.711-17.033 4.711-96.038 0-113.434-7.973-28.63-41.315-38.052-61.972-17.395l-10.872 10.872 1.087 63.784 1.087 63.784 10.148 8.698c11.96 10.51 34.429 11.597 47.838 2.899zm1004.957 50.737c-25.73-8.335-48.2-32.254-57.26-61.972-6.523-21.382-7.248-33.341-7.248-136.99 0-100.387.725-115.97 6.886-135.178 9.422-30.08 23.194-47.113 49.287-59.435 18.845-8.698 26.093-10.148 55.086-10.148 44.214 0 67.77 8.336 88.065 31.53 24.644 28.268 25.731 36.965 24.644 179.392-1.087 122.131-1.087 124.668-9.785 141.701-10.872 22.107-26.818 38.053-47.476 47.476-21.382 9.422-77.192 11.597-102.199 3.624zm72.482-61.61c18.12-12.684 18.845-18.12 18.845-140.614V796.584l-9.06-10.872c-25.73-30.805-70.307-19.933-76.106 18.12-1.087 8.698-1.812 63.06-1.087 120.682 1.087 94.589 1.812 106.548 7.61 115.608 3.625 5.436 10.148 11.235 14.497 13.047 12.684 5.074 36.603 3.986 45.301-2.174zm432.715 61.972c-32.254-9.785-33.341-11.96-33.341-52.911v-36.603l11.96 10.147c24.28 20.657 56.897 28.63 80.091 19.57 22.107-8.335 30.443-45.301 16.671-72.482-3.986-7.973-21.02-25.73-39.502-41.314-18.12-15.221-38.416-34.791-45.664-43.49-34.428-42.4-36.24-113.433-3.986-156.197 5.074-6.523 18.483-16.67 29.355-21.745 18.483-9.06 22.832-9.785 55.086-8.335 28.993 1.087 38.415 2.9 51.1 10.147l15.22 8.698v33.704c0 26.818-1.087 33.342-4.71 31.167-2.538-1.45-11.235-7.61-19.208-13.046-16.671-11.235-34.791-15.584-53.637-11.96-26.818 5.074-36.24 45.664-16.67 74.656 4.71 6.886 19.57 22.47 33.703 34.429 52.55 45.301 67.408 65.958 75.019 105.823 5.074 24.644.725 62.334-9.423 81.542-10.51 20.295-35.516 42.04-55.81 47.838-23.195 6.886-64.872 7.248-86.254.362zM1648.085 859.643V604.508l24.644-2.537c13.409-1.087 28.63-3.262 34.428-3.987l9.785-2.174.363 90.24c0 64.508 1.087 87.34 3.624 80.817 18.845-46.389 29.717-55.449 67.77-57.623 15.584-.725 30.805.724 36.966 3.261 17.758 7.248 34.791 29.355 39.502 50.375 2.537 12.322 3.987 77.193 3.987 185.19v166.708h-68.858V957.131c0-169.607-.725-175.406-18.483-188.09-16.67-11.597-44.576-5.436-56.535 11.96-5.799 8.697-6.524 23.556-7.61 171.78l-1.088 161.997h-68.496zm521.868 56.173V716.854l24.643-2.174c13.41-1.45 28.63-3.262 34.429-4.35l9.785-2.174.362 34.067v33.704l7.249-19.933c13.046-36.965 31.53-48.562 73.206-46.388 22.47 1.087 28.993 2.9 39.865 11.235 14.859 11.234 22.832 24.643 27.18 44.938l2.9 13.772 6.16-19.933c11.235-36.24 30.805-50.737 69.22-50.737 32.98 0 51.825 10.51 64.147 35.154l8.698 17.395 1.087 176.856 1.087 176.492h-68.857l-1.088-165.258-1.087-165.258-11.96-10.51c-16.308-14.496-35.878-14.496-52.186 0l-11.96 10.51-1.812 164.533-1.812 164.171-35.153 1.088-35.516 1.087V953.869c0-117.42-1.087-163.808-4.349-170.694-9.785-21.745-42.402-26.456-61.61-9.423l-11.959 10.51-1.087 165.258-1.087 165.258h-68.495zm692.199 0V716.854l28.268-2.537c15.221-1.45 30.805-3.261 34.429-3.986 5.798-1.812 6.16 9.422 6.16 201.136v203.311h-68.857zm391.401 0V716.854l28.268-2.174c15.22-1.45 30.804-3.624 34.428-4.35 5.437-1.811 6.161 1.45 6.161 31.893v33.704l8.698-21.02c15.221-36.24 29.718-46.026 70.307-46.026 28.268 0 43.49 7.248 57.623 28.268 14.134 21.382 15.584 40.59 15.584 212.734v164.895h-68.858V956.406c0-143.876-.725-159.822-6.523-171.419-15.584-31.53-63.421-27.543-72.844 6.16-2.537 8.699-3.987 71.033-3.987 168.883v154.748h-68.858zm489.251-56.173V604.145l21.02-2.174c11.234-1.087 26.818-2.9 34.428-3.987l13.41-2.174v90.24l.362 89.877 6.523-19.208c7.248-21.382 21.02-37.69 36.966-44.214 5.798-2.537 21.382-3.986 36.603-3.261 33.342 1.812 47.113 10.51 60.522 39.14l9.423 20.295v344.287l-35.154 1.088-35.516 1.087V953.869c0-117.42-1.087-163.808-4.349-170.694-9.785-21.745-42.401-26.456-61.61-9.423l-11.959 10.51-1.087 165.258-1.087 165.258h-68.496zm268.182 56.173V716.854l28.268-2.174c15.22-1.45 30.804-3.624 34.428-4.35 5.799-1.811 6.161 9.423 6.161 201.137v203.311h-68.858zm0-281.591v-29.717l24.644-2.537c13.409-1.087 28.63-3.262 34.428-3.987l9.785-2.174v31.167c0 27.18-.724 31.167-6.16 31.53-3.625 0-19.208 1.45-34.43 2.536l-28.267 2.9zm-1148.834-1.087v-28.993l21.02-2.174c11.234-1.087 26.818-2.9 34.429-3.987l13.409-2.174v61.247l-16.671 2.537c-9.423 1.087-25.006 2.174-34.429 2.174h-17.758zm-653.784-.725c-11.597-1.812-26.456-6.16-32.617-9.785-11.235-6.523-11.235-6.886-12.322-39.865-.362-18.483.363-33.341 2.175-33.341 1.812 0 6.16 3.261 10.147 7.61 12.684 14.134 27.18 19.208 56.173 19.208 23.92.362 29.355-.725 42.04-9.423 22.469-14.858 30.08-33.704 30.08-76.468 0-19.207-1.45-35.516-2.9-36.603-1.812-1.087-4.711 5.436-7.248 14.134-5.074 18.483-21.382 38.778-36.966 45.3-6.523 2.538-21.382 3.987-37.328 2.9-32.254-1.45-47.837-11.235-60.884-38.053-8.698-17.395-8.698-17.758-8.698-156.922 0-138.803 0-139.528 8.335-156.56 11.235-22.832 25.369-34.067 48.926-39.14 24.28-5.075 52.549.724 67.77 13.046 5.798 5.074 13.771 17.395 17.758 27.905l7.248 18.845v-25.73l.362-25.731 16.671-2.537c9.423-1.088 25.006-2.175 34.429-2.175h17.758l1.087 140.615c1.812 291.013 2.175 279.054-9.06 301.523-18.483 37.69-42.764 55.449-84.441 61.61-28.993 3.986-38.778 3.986-68.495-.363zm79.73-182.291l12.321-12.322V204.409l-12.321-12.322c-10.51-10.51-14.86-12.322-29.355-12.322-40.228 0-41.677 5.436-41.677 139.527 0 114.884 1.45 125.394 18.482 137.353 4.712 3.262 15.584 5.799 24.282 5.799 13.409 0 18.12-2.175 28.268-12.322zm-569.344 81.542c-32.616-6.161-57.26-25.731-71.394-56.536-8.335-17.758-8.335-20.295-8.335-146.775 0-127.93 0-128.655 8.697-147.863 10.873-23.919 34.43-45.3 57.26-51.824 23.557-6.524 64.147-5.799 86.616 1.812 17.758 5.798 33.704 19.207 45.664 38.415 9.785 16.308 13.771 46.388 13.771 108.723v61.609h-145.688l1.45 48.2c1.087 54.361 5.798 67.046 28.268 79.005 25.73 14.134 69.582 5.436 94.588-18.483l14.134-13.409v71.032l-11.96 9.06c-6.16 4.712-16.308 10.873-22.106 13.047-13.41 5.074-71.757 7.61-90.965 3.987zm66.321-277.605c2.175-54.724-6.523-70.67-39.14-70.67-23.919 0-31.53 4.35-36.24 21.02-3.987 15.221-5.075 74.294-1.088 78.28 1.45 1.45 18.845 1.812 38.778 1.45l36.603-1.087zm149.312 277.605c-17.033-5.436-26.093-13.047-35.516-31.167-9.785-18.12-9.785-18.483-9.785-96.039 0-84.078 1.812-96.038 19.208-116.695 12.322-14.496 28.63-21.02 52.187-21.02 33.341.363 59.797 17.758 66.32 44.577 1.45 5.436 4.35 9.785 6.524 9.785 2.174 0 2.899-15.222 1.812-44.94-2.537-51.461-7.973-67.77-27.906-80.816-17.758-11.96-52.549-11.597-79.005.725-10.51 5.073-19.207 10.872-19.207 13.046 0 2.175-1.45 2.537-3.624 1.45-1.812-1.087-3.625-15.946-3.625-32.617 0-28.992.363-30.804 10.148-37.328 14.496-10.51 38.778-16.308 69.582-16.308 69.583-.725 104.736 25.368 117.783 86.615 3.986 19.57 5.436 57.623 5.436 172.87v147.5h-68.857v-23.195c0-26.818-3.987-32.617-10.148-15.583-11.597 32.254-54.361 50.374-91.327 39.14zm89.515-60.16c7.973-9.06 8.335-12.322 8.335-67.408 0-75.38-5.073-86.616-39.864-86.616-10.873 0-17.034 2.175-23.557 9.06-9.06 8.698-9.06 9.786-9.06 70.308 0 64.508 2.174 76.468 15.946 83.354 13.409 6.885 38.777 2.174 48.2-8.698zm443.95 59.797c-16.308-3.986-31.53-19.207-39.502-39.502-5.799-14.859-6.524-34.429-7.611-187.365l-1.087-170.694 13.771-2.537c7.61-1.088 23.194-2.175 34.429-2.175h20.657l1.087 160.547c1.088 167.433 1.45 170.694 17.034 182.654 3.261 2.537 13.409 4.711 22.469 4.711 20.657 0 34.066-9.423 39.502-28.268 2.175-8.335 3.625-72.119 3.625-164.17V133.74l13.771-2.537c7.248-1.088 22.832-2.175 34.429-2.175h20.657l-.725 200.412-1.087 200.05-33.341 1.086-33.704 1.088v-67.408l-9.06 21.744c-4.712 11.597-13.41 26.094-19.208 31.892-15.221 15.221-46.026 20.657-76.106 13.41zm301.886.363c-34.066-6.161-61.61-29.718-73.206-63.784-5.799-15.946-6.524-32.98-6.524-139.527 0-141.34 1.087-148.225 30.805-177.58 19.57-19.933 41.677-27.18 79.73-26.456 33.704.362 52.549 6.523 70.67 23.194 25.73 23.557 30.804 44.576 30.804 125.393v66.32h-145.688l1.45 48.201c.724 39.865 2.174 50.013 8.335 60.16 19.208 32.617 73.206 34.429 111.622 3.624l13.409-10.872v69.219l-13.772 9.061c-21.382 14.134-68.133 19.57-107.635 13.047zm66.32-273.98c2.538-56.899-6.885-74.295-40.227-74.295-16.308 0-21.02 1.45-28.267 9.423-7.611 8.335-8.698 13.047-9.785 45.301-.725 19.933-.363 38.415.724 41.677 1.812 4.349 8.698 5.074 39.14 4.349l37.328-1.087zM1401.647 273.63V15.956l11.96 2.537c26.456 5.798 50.012 26.818 56.535 51.462 2.537 8.697 3.987 82.629 3.987 205.123v190.989h134.453l-1.087 31.892-1.087 31.53-102.2 1.086-102.56.725z"></path></svg>